<svg width="48" height="48" viewBox="0 0 48 48" fill="none" xmlns="http://www.w3.org/2000/svg">
<rect width="48" height="48" rx="10" fill="#212121"/>
<path d="M20 14V17M28 14V17M15.5 21.09H32.5M33 20.5V29C33 32 31.5 34 28 34H20C16.5 34 15 32 15 29V20.5C15 17.5 16.5 15.5 20 15.5H28C31.5 15.5 33 17.5 33 20.5Z" stroke="white" stroke-width="1.5" stroke-miterlimit="10" stroke-linecap="round" stroke-linejoin="round"/>
<path d="M27.6949 25.7H27.7039M27.6949 28.7H27.7039M23.9949 25.7H24.0049M23.9949 28.7H24.0049M20.2939 25.7H20.3039M20.2939 28.7H20.3039" stroke="white" stroke-width="2" stroke-linecap="round" stroke-linejoin="round"/>
</svg>
