<svg width="48" height="48" viewBox="0 0 48 48" fill="none" xmlns="http://www.w3.org/2000/svg">
<rect width="48" height="48" rx="10" fill="#212121"/>
<path d="M23.9999 25.43C24.4096 25.43 24.8153 25.3493 25.1939 25.1925C25.5724 25.0357 25.9163 24.8059 26.2061 24.5162C26.4958 24.2265 26.7256 23.8825 26.8824 23.504C27.0392 23.1254 27.1199 22.7197 27.1199 22.31C27.1199 21.9003 27.0392 21.4946 26.8824 21.116C26.7256 20.7375 26.4958 20.3935 26.2061 20.1038C25.9163 19.8141 25.5724 19.5843 25.1939 19.4275C24.8153 19.2707 24.4096 19.19 23.9999 19.19C23.1724 19.19 22.3788 19.5187 21.7937 20.1038C21.2086 20.6889 20.8799 21.4825 20.8799 22.31C20.8799 23.1375 21.2086 23.9311 21.7937 24.5162C22.3788 25.1013 23.1724 25.43 23.9999 25.43Z" stroke="white" stroke-width="1.5"/>
<path d="M15.6202 20.49C17.5902 11.83 30.4202 11.84 32.3802 20.5C33.5302 25.58 30.3702 29.88 27.6002 32.54C26.6323 33.4735 25.34 33.9952 23.9952 33.9952C22.6504 33.9952 21.3581 33.4735 20.3902 32.54C17.6302 29.88 14.4702 25.57 15.6202 20.49Z" stroke="white" stroke-width="1.5"/>
</svg>
